# xmcd CD database file
# Copyright (C) 1993-1996 Ti Kan
#
# Track frame offsets:
#  150
#  13513
#  29726
#  42627
#  56057
#  73710
#  90108
#  108265
#  120476
#  137698
#  151837
#  168523
#
# Disc length: 2441 seconds
#
# Revision: 3
# Processed by: cddbd v1.5.2PL0 Copyright (c) Steve Scherf et al.
# Submitted via: Advanced CD Ripper Pro 2.0
#
DISCID=9909870c
DTITLE=Joey and Rory - The Life Of A Song
DYEAR=2008
DGENRE=Country
TTITLE0=Play The Song
TTITLE1=Sweet Emmylou
TTITLE2=Tonight Cowboy You're Mine (featuring Mike Johnson)
TTITLE3=Cheater Cheater
TTITLE4=Rodeo
TTITLE5=Heart Of The Wood
TTITLE6=Tune Of A Twenty Dollar Bill
TTITLE7=Loved The Hell
TTITLE8=Free Bird
TTITLE9=Boots
TTITLE10=To Say Goodbye
TTITLE11=The Life Of A Song
EXTD=
EXTT0=
EXTT1=
EXTT2=
EXTT3=
EXTT4=
EXTT5=
EXTT6=
EXTT7=
EXTT8=
EXTT9=
EXTT10=
EXTT11=
PLAYORDER=
